# xmcd CD database file
#
# Track frame offsets:
#	150
#	14968
#	32942
#	46553
#	61530
#	76983
#	91701
#	107510
#	121423
#	139568
#	157852
#	175493
#	192233
#
# Disc length: 2652 seconds
#
# Revision: 2
# Processed by: cddbd v1.4PL0 Copyright (c) Steve Scherf et al.
# Submitted via: CDex 1.40Beta9
#
DISCID=990a5a0d
DTITLE=Toby Keith - Unleashed
DYEAR=2002
DGENRE=Country
TTITLE0=Courtesy Of The Red White and Blue
TTITLE1=Who's Your Daddy?
TTITLE2=Good To Go To Mexico
TTITLE3=It's All Good
TTITLE4=Beer 4 My Horses
TTITLE5=Losing My Touch
TTITLE6=Huckleberry
TTITLE7=It Works 4 Me
TTITLE8=Ain't It Just Like You
TTITLE9=Rock U Baby
TTITLE10=Rodeo Moon
TTITLE11=That's Not How It Is
TTITLE12=Live Intro
EXTD=YEAR: 2002 ID3G: 2
EXTT0=
EXTT1=
EXTT2=
EXTT3=
EXTT4=
EXTT5=
EXTT6=
EXTT7=
EXTT8=
EXTT9=
EXTT10=
EXTT11=
EXTT12=
PLAYORDER=
